<svg xmlns="http://www.w3.org/2000/svg" version="1.1" xmlns:xlink="http://www.w3.org/1999/xlink" xmlns:svgjs="http://svgjs.dev/svgjs" width="1000" height="1125" viewBox="0 0 1000 1125"><g transform="matrix(1,0,0,1,1.7053025658242404e-13,0)"><svg viewBox="0 0 320 360" data-background-color="#ffffff" preserveAspectRatio="xMidYMid meet" height="1125" width="1000" xmlns="http://www.w3.org/2000/svg" xmlns:xlink="http://www.w3.org/1999/xlink"><defs></defs><g id="tight-bounds" transform="matrix(1,0,0,1,0,0)"><svg viewBox="0 0 320 360" height="360" width="320"><g><svg></svg></g><g><svg viewBox="0 0 320 360" height="360" width="320"><g><path d="M20.961 227.22l3.726 4.658-1.863-6.056c-0.466-2.795-3.726 0.466-1.863 1.398M25.153 224.425c1.397 2.329 2.795 4.658 2.795 6.987 0 3.261 2.795 4.658 5.123 5.589-3.261-3.726-5.124-13.974-7.918-12.576M204.017 26.929c7.918 0 15.371-0.932 23.756 0.931 20.495 5.124 37.729 15.371 49.374 29.811l32.606 52.169c1.397 13.042 4.192 27.482 3.726 43.319 3.261 0 2.795-4.658 6.521-5.59-3.726 9.316-5.59 20.961-6.521 34.469-2.329-7.453 0-18.632 0.466-24.687-3.261 5.124-5.124 1.397-5.124-0.932 0.466-3.726-1.397-3.261-2.795-4.658-5.124-4.658-8.384-9.782-12.11-17.7 2.329-6.055 2.795-14.905-4.658-19.563-2.329-1.397-5.124-3.726-6.521-7.453-1.863-5.124-5.124-11.179-4.193-19.097 0.466-2.329-6.987 5.124-11.179 1.863-18.166-12.576-36.332-27.016-58.224-39.127-11.645 0-20.029-4.192-24.221-9.316-3.726-4.658-0.932-10.713 4.658-11.179 3.261 0 6.987-0.932 9.782 0.932 0.466-1.863 2.329-4.192 4.657-4.192M157.904 16.215l0.932 0.466c4.658 0.932 6.987 7.453 12.11 5.124 0 3.261 0.466 6.521-0.466 8.85-1.397 3.726-5.59 3.726-8.85 3.726-31.208-1.863-49.374 11.179-68.471 22.358-5.124 3.261-10.713 5.59-14.906 9.782-20.029 18.632-41.921 35.866-47.045 70.335l-4.192 38.195c-0.466 4.192-5.124 8.384-4.192 13.508l3.26 22.824c-3.261-3.261-5.124 0.932-4.192 2.795 0.466 1.397 2.329 6.055 5.124 1.863 3.726 6.987 7.453 20.495 12.576 26.55 15.837 18.632 36.332 35.4 53.101 52.169 4.192-0.932 7.453-0.932 8.384-3.727 1.397 2.795-1.397 5.59-3.726 6.056 7.453 4.658 15.837 8.85 27.016 9.781 14.44 0.932 27.948 3.261 40.524 6.522 6.521-1.863 13.042-2.795 20.029-3.261 2.329 0 3.726-3.726 6.521-4.658l0.466-4.658c2.795 4.192 2.329-1.397 0.466-4.192 3.261 2.795 4.192 5.124 5.589 6.987 0-1.397 3.726-6.521 3.727-0.466l0.931-6.055c1.397-0.932 1.863 5.124 3.261 0.931 1.397-4.192 4.192-0.932 6.987-2.329-0.932 1.863-0.466 5.59 2.794 3.261l3.727-3.261c2.329 5.59 6.055 3.261 7.918 2.329 20.495-13.042 40.99-28.413 60.553-43.784l-0.466 6.055 2.329-7.453c2.329 2.329 4.192 0.466 5.124-0.931 2.795-4.658 6.521-9.316 12.577-13.508-7.453 20.029-16.303 35.866-27.482 48.908l-4.658 5.59c0 3.261-0.932 7.453-4.658 7.918-1.863 0.466-5.59-0.932-8.384 1.863-1.397 1.863 3.261 5.59-0.466 2.795-3.261-2.329-6.521 0-10.248 0.932-2.795 0.932 1.863 3.726 2.795 5.589 0.932 1.863 1.863 3.726 1.398 6.056l-5.124-5.59c-6.055 3.261-9.782 9.316-14.906 13.974-2.329 1.863-1.397 5.124-1.397 7.918-3.261 0-6.987-0.932-8.85 0.932-1.397 1.863-0.932 4.658-0.932 7.453-4.658-0.466-5.124-7.453-9.315-6.056-4.192 0.932-8.85 1.397-12.577 3.727 2.795 5.59-4.658 2.329-3.726 3.26-6.987-4.192-13.042-7.453-20.495-4.658-15.837-5.124-35.4-2.795-49.84-0.931 0-2.329 0.466-4.658-0.466-5.124-0.932 2.329-3.726 1.397-3.26 1.397-8.85-6.055-17.7-9.782-27.016-14.905-8.384 0.932-16.303-3.261-18.632-5.59-6.521-6.055-13.974-2.795-20.029-4.192-13.042-3.261-17.7-16.769-19.098-26.084-0.932-4.658-4.658-6.521-6.055-6.056-6.055-19.563-15.371-37.263-22.824-55.429-1.863-4.658-1.397-9.316-1.397-14.44 2.329 0.932 4.658 0.466 4.192-2.794-2.329-15.371-7.918-27.016-13.974-38.195 3.261-15.837 3.726-34.469 11.179-48.443 6.521-12.576 18.632-19.098 27.016-29.811 2.795-3.726 2.795-8.85 5.59-12.11 9.316-9.316 18.632-19.098 28.879-27.482 4.658-3.726 10.247 0 17.234-1.397 2.329-8.384 11.645-15.837 20.495-13.508 3.726 0.932 11.179-8.85 13.508-9.782 3.726-1.397 1.863 3.726 1.863 6.987 8.85-6.987 20.961-10.713 32.14-14.906" fill="#dedede" data-fill-palette-color="tertiary"></path></g><g transform="matrix(1,0,0,1,73.7234718767543,90)"><svg viewBox="0 0 172.5530562464914 180" height="180" width="172.5530562464914"><g><svg viewBox="0 0 192.95999999999998 201.2876546816089" height="180" width="172.5530562464914"><g><rect width="192.95999999999998" height="7.1069374783602495" x="0" y="96.76871541442875" fill="#dedede" opacity="1" stroke-width="0" stroke="transparent" fill-opacity="1" class="rect-o-0" data-fill-palette-color="secondary" rx="1%" id="o-0" data-palette-color="#dedede"></rect></g><g transform="matrix(1,0,0,1,0.47999999999998977,122.48020126545981)"><svg viewBox="0 0 192 78.80745341614907" height="78.80745341614907" width="192"><g><svg viewBox="0 0 192 78.80745341614907" height="78.80745341614907" width="192"><g><svg viewBox="0 0 192 78.80745341614907" height="78.80745341614907" width="192"><g transform="matrix(1,0,0,1,0,0)"><svg width="192" viewBox="2.9800000190734863 -37.54999923706055 94.32999420166016 38.720001220703125" height="78.80745341614907" data-palette-color="#dedede"><path d="M3.17 0.59L3.17 0.59Q2.98 0.39 2.98 0.05L2.98 0.05Q2.98-0.2 3-0.37 3.03-0.54 3.08-0.78L3.08-0.78Q3.32-1.9 3.32-3.05 3.32-4.2 3.42-5.32L3.42-5.32Q3.47-6.01 3.49-6.69 3.52-7.37 3.52-8.06L3.52-8.06Q3.52-12.11 3.27-16.14 3.03-20.17 3.03-24.27L3.03-24.27Q3.03-27.1 3.13-29.96 3.22-32.81 3.27-35.69L3.27-35.69Q3.71-35.94 4.35-35.89 4.98-35.84 5.37-36.33L5.37-36.33Q5.62-36.38 5.86-36.35 6.1-36.33 6.35-36.33L6.35-36.33Q6.88-36.33 7.37-36.67 7.86-37.01 8.45-37.26L8.45-37.26Q8.74-37.16 8.86-37.18 8.98-37.21 9.13-37.21L9.13-37.21Q9.28-37.21 9.77-36.87 10.25-36.52 10.84-36.08 11.43-35.64 11.94-35.25 12.45-34.86 12.6-34.77L12.6-34.77Q13.82-33.84 14.77-32.74 15.72-31.64 16.65-30.52L16.65-30.52Q17.53-29.39 18.55-28.25 19.58-27.1 20.56-26.12L20.56-26.12Q20.9-25.73 21.26-25.44 21.63-25.15 21.97-24.76L21.97-24.76Q22.12-24.56 22.24-24.34 22.36-24.12 22.51-23.88L22.51-23.88Q22.8-23.54 23.19-23.29 23.58-23.05 23.93-22.71L23.93-22.71Q24.17-22.51 24.66-21.92 25.15-21.34 25.15-21.04L25.15-21.04Q25.15-20.85 25.05-20.7 24.95-20.56 24.85-20.36L24.85-20.36Q24.8-20.21 24.8-19.92 24.8-19.63 24.76-19.53L24.76-19.53Q24.27-19.14 24.22-19.04 24.17-18.95 24.07-18.85L24.07-18.85Q23.93-18.65 23.71-18.53 23.49-18.41 23.39-18.16L23.39-18.16Q23.29-18.02 23.32-17.87 23.34-17.72 23.24-17.53L23.24-17.53Q23-16.99 22.46-16.5 21.92-16.02 21.53-15.43L21.53-15.43Q21-14.55 20.46-13.67 19.92-12.79 19.24-11.96L19.24-11.96Q18.95-11.57 18.63-11.21 18.31-10.84 18.02-10.45L18.02-10.45Q17.77-10.16 17.58-9.84 17.38-9.52 17.14-9.13L17.14-9.13Q16.6-8.45 16.11-7.79 15.63-7.13 15.09-6.45L15.09-6.45Q14.5-5.62 13.82-4.81 13.13-4 12.6-3.17L12.6-3.17Q12.06-2.29 11.47-1.56 10.89-0.83 10.21-0.15L10.21-0.15Q10.01 0 9.72 0.29 9.42 0.59 9.13 0.59L9.13 0.59Q8.94 0.59 8.81 0.44 8.69 0.29 8.45 0.29L8.45 0.29Q8.4 0.29 8.15 0.34 7.91 0.39 7.57 0.44L7.57 0.44 6.69 0.54Q5.91 0.93 5.57 0.9 5.22 0.88 4.88 0.93L4.88 0.93Q4.69 0.98 4.57 1.07 4.44 1.17 4.3 1.17L4.3 1.17Q3.96 1.17 3.76 0.85 3.56 0.54 3.17 0.59ZM17.82-20.51L17.82-20.51Q17.82-20.75 17.36-21.19 16.89-21.63 16.65-21.83L16.65-21.83Q16.31-22.12 15.84-22.39 15.38-22.66 15.09-23L15.09-23Q14.84-23.29 14.62-23.61 14.4-23.93 14.16-24.22L14.16-24.22Q13.28-25.2 12.38-26.17 11.47-27.15 10.79-28.32L10.79-28.32Q10.35-28.61 9.96-29 9.57-29.39 9.03-29.64L9.03-29.64Q8.94-29.35 8.96-29.03 8.98-28.71 8.98-28.42L8.98-28.42Q8.98-27.29 8.89-26.22 8.79-25.15 8.79-24.07L8.79-24.07Q8.79-21.44 8.91-18.87 9.03-16.31 9.03-13.72L9.03-13.72Q9.03-12.74 9.06-11.77 9.08-10.79 9.23-9.81L9.23-9.81Q9.13-9.52 9.13-9.28L9.13-9.28Q9.13-9.03 9.23-8.64L9.23-8.64Q9.62-8.89 9.89-9.25 10.16-9.62 10.4-9.96L10.4-9.96Q11.23-11.04 12.04-12.13 12.84-13.23 13.67-14.36L13.67-14.36Q14.21-15.09 14.77-15.8 15.33-16.5 15.87-17.29L15.87-17.29Q16.02-17.48 16.33-17.97 16.65-18.46 16.97-18.97 17.29-19.48 17.55-19.92 17.82-20.36 17.82-20.51ZM51.36-19.38L51.36-19.38Q51.27-19.19 51.17-19.02 51.07-18.85 51.02-18.65L51.02-18.65Q51.22-18.46 51.39-18.24 51.56-18.02 51.56-17.77L51.56-17.77Q51.56-17.58 51.49-17.41 51.41-17.24 51.46-17.09L51.46-17.09Q51.27-16.75 51.05-16.46 50.83-16.16 50.73-15.82L50.73-15.82Q50.53-15.63 50.41-15.43 50.29-15.23 50.19-15.04L50.19-15.04Q49.95-14.94 49.88-14.72 49.8-14.5 49.61-14.36L49.61-14.36Q49.56-14.16 49.12-13.43 48.68-12.7 48.14-11.87 47.6-11.04 47.12-10.25 46.63-9.47 46.43-9.23L46.43-9.23Q46.34-8.98 46.21-8.84 46.09-8.69 45.94-8.5L45.94-8.5Q45.85-8.35 45.8-8.18 45.75-8.01 45.65-7.91L45.65-7.91Q45.55-7.71 45.43-7.57 45.31-7.42 45.21-7.18L45.21-7.18Q44.72-6.54 44.24-5.66 43.75-4.79 43.31-4.1L43.31-4.1Q43.06-3.71 42.84-3.32 42.62-2.93 42.38-2.54L42.38-2.54Q42.14-2.15 41.89-1.81 41.65-1.46 41.4-1.07L41.4-1.07Q41.01-0.78 40.72-0.37 40.43 0.05 40.04 0.34L40.04 0.34Q39.4 0.34 39.26-0.24L39.26-0.24Q38.62-0.39 38.62-0.24 38.62-0.1 38.62 0L38.62 0Q38.43 0.1 38.35 0.29 38.28 0.49 38.08 0.59L38.08 0.59Q37.69 0.49 37.42 0.27 37.16 0.05 36.67 0.1L36.67 0.1Q36.47-0.2 36.23-0.42 35.98-0.63 35.79-0.88L35.79-0.88Q35.69-1.17 35.52-1.37 35.35-1.56 35.2-1.76L35.2-1.76Q35.06-2 34.91-2.2 34.76-2.39 34.62-2.59L34.62-2.59Q34.27-3.03 33.96-3.44 33.64-3.86 33.4-4.3L33.4-4.3Q33.01-4.88 32.64-5.49 32.27-6.1 31.88-6.69L31.88-6.69Q31.69-6.98 31.49-7.28 31.3-7.57 31.15-7.86L31.15-7.86Q31.05-8.11 30.88-8.45 30.71-8.79 30.47-8.89L30.47-8.89Q30.37-9.28 30.12-9.47 29.88-9.67 29.64-9.96L29.64-9.96Q29.29-10.35 29-10.82 28.71-11.28 28.42-11.77L28.42-11.77Q27.44-13.13 26.58-14.45 25.73-15.77 24.9-17.19L24.9-17.19Q25.14-17.97 25.14-18.36 25.14-18.75 25.39-18.99L25.39-18.99Q25.39-19.19 25.49-19.58L25.49-19.58Q26.12-20.65 26.71-21.53L26.71-21.53Q27.24-22.36 27.46-22.9 27.68-23.44 27.93-24.02L27.93-24.02Q28.17-24.17 28.32-24.39 28.46-24.61 28.71-24.8L28.71-24.8Q28.81-25.34 29.15-25.71 29.49-26.07 29.59-26.61L29.59-26.61Q30.03-26.95 30.08-27.39L30.08-27.39Q30.71-27.83 30.86-28.56L30.86-28.56Q31.25-28.96 31.52-29.44 31.78-29.93 32.03-30.47L32.03-30.47Q32.61-30.96 32.96-31.74L32.96-31.74Q33.25-31.93 33.4-32.28 33.54-32.62 33.79-32.86L33.79-32.86Q34.18-33.5 34.4-33.91 34.62-34.33 34.86-34.77L34.86-34.77Q35.2-34.77 35.3-35.01 35.4-35.25 35.69-35.21L35.69-35.21Q35.69-35.64 35.94-35.99L35.94-35.99Q36.03-36.04 36.23-36.11 36.42-36.18 36.42-36.28L36.42-36.28Q36.33-36.87 36.47-36.96 36.62-37.06 36.72-37.16L36.72-37.16Q37.25-37.06 37.45-37.01 37.64-36.96 38.08-36.67L38.08-36.67Q38.57-36.67 38.77-36.47 38.96-36.28 39.21-36.18L39.21-36.18Q39.4-35.99 39.52-35.79 39.65-35.6 39.89-35.5L39.89-35.5Q40.28-34.96 40.72-34.33 41.16-33.69 41.55-33.15L41.55-33.15Q42.09-32.42 42.65-31.76 43.21-31.1 43.7-30.32L43.7-30.32Q43.85-30.08 44.24-29.47 44.63-28.86 45.11-28.17 45.6-27.49 45.99-26.93 46.38-26.37 46.53-26.27L46.53-26.27Q46.68-26.03 47.17-25.34 47.65-24.66 48.22-23.9 48.78-23.14 49.31-22.46 49.85-21.78 50.05-21.58L50.05-21.58Q50.58-20.85 50.85-20.39 51.12-19.92 51.36-19.38ZM40.18-10.21L40.18-10.21Q40.72-10.94 41.01-11.52 41.31-12.11 41.6-12.7L41.6-12.7Q42.09-13.28 42.19-13.53 42.28-13.77 42.43-14.01L42.43-14.01Q42.82-14.6 43.23-15.19 43.65-15.77 43.89-16.46L43.89-16.46Q44.19-16.65 44.33-16.94 44.48-17.24 44.77-17.48L44.77-17.48Q44.48-18.51 44.09-19.07 43.7-19.63 43.31-20.17L43.31-20.17Q43.16-20.41 43.02-20.65 42.87-20.9 42.72-21.14L42.72-21.14Q42.53-21.29 42.4-21.44 42.28-21.58 42.14-21.73L42.14-21.73Q42.04-21.97 41.84-22.36L41.84-22.36Q41.65-22.61 41.45-22.8 41.26-23 41.11-23.29L41.11-23.29Q40.92-23.49 40.62-23.83 40.33-24.17 40.01-24.58 39.69-25 39.45-25.37 39.21-25.73 39.06-25.98L39.06-25.98Q38.96-26.22 38.89-26.39 38.82-26.56 38.72-26.76L38.72-26.76Q38.47-27.1 38.23-27.37 37.99-27.64 37.74-27.98L37.74-27.98Q37.6-27.88 37.47-27.86 37.35-27.83 37.25-27.73L37.25-27.73Q36.91-27.1 36.5-26.56 36.08-26.03 35.69-25.39L35.69-25.39Q35.35-24.8 35.01-24.19 34.67-23.58 34.32-23L34.32-23Q34.08-22.66 33.86-22.34 33.64-22.02 33.4-21.63L33.4-21.63Q33.15-21.29 32.98-20.92 32.81-20.56 32.57-20.21L32.57-20.21Q32.18-19.73 31.93-19.34 31.69-18.95 31.44-18.41L31.44-18.41Q31.59-18.12 31.91-17.6 32.22-17.09 32.57-16.58 32.91-16.06 33.18-15.63 33.44-15.19 33.49-15.04L33.49-15.04Q33.88-14.7 34.13-14.28 34.37-13.87 34.76-13.48L34.76-13.48Q34.96-13.09 35.2-12.79 35.45-12.5 35.69-12.16L35.69-12.16Q35.94-11.82 36.33-11.16 36.72-10.5 37.11-9.81 37.5-9.13 37.89-8.54 38.28-7.96 38.52-7.81L38.52-7.81Q39.01-8.35 39.33-9.01 39.65-9.67 40.18-10.21ZM71.48-37.55L71.48-37.55Q71.87-37.55 72.04-37.38 72.21-37.21 72.31-36.96L72.31-36.96Q72.8-37.01 73.31-36.79 73.82-36.57 73.92-36.38L73.92-36.38Q74.31-36.33 74.41-36.18 74.51-36.04 74.7-35.99L74.7-35.99 75.24-36.04Q75.43-35.84 76-35.64 76.56-35.45 76.66-35.21L76.66-35.21Q76.56-34.96 76.58-34.69 76.61-34.42 76.61-34.08L76.61-34.08Q76.46-33.35 76.14-32.76 75.83-32.18 75.58-31.64L75.58-31.64Q75.43-31.4 75.36-31.1 75.29-30.81 75.19-30.57L75.19-30.57Q75.09-30.37 75.02-30.2 74.95-30.03 74.85-29.83L74.85-29.83Q74.85-29.59 74.75-29.32 74.65-29.05 74.56-28.81L74.56-28.81Q74.56-28.52 74.51-28.39 74.46-28.27 74.46-28.17L74.46-28.17Q73.53-25.93 72.99-23.97 72.46-22.02 71.92-20.07L71.92-20.07Q71.67-19.48 71.43-18.6 71.19-17.72 70.82-16.53 70.45-15.33 70.04-13.99 69.62-12.65 69.26-11.5 68.89-10.35 68.62-9.55 68.35-8.74 68.31-8.64L68.31-8.64Q68.16-7.81 67.87-6.96 67.57-6.1 67.38-5.18L67.38-5.18Q67.13-4.88 67.08-4.52 67.04-4.15 66.84-3.81L66.84-3.81Q66.45-3.86 66.21-3.61L66.21-3.61Q66.16-3.22 66.28-2.88 66.4-2.54 66.4-2.15L66.4-2.15Q66.21-1.61 65.91-1.46 65.62-1.32 65.52-0.98L65.52-0.98Q65.18-1.07 65.01-0.88 64.84-0.68 64.64-0.68L64.64-0.68Q64.06-0.83 63.96-0.49L63.96-0.49Q63.67-0.59 63.57-0.42 63.47-0.24 63.37-0.2L63.37-0.2Q62.98-0.2 62.76-0.02 62.54 0.15 62.25 0.2L62.25 0.2Q62.06 0.1 61.86-0.02 61.66-0.15 61.52-0.29L61.52-0.29Q61.23-1.12 60.98-1.93 60.74-2.73 60.49-3.56L60.49-3.56Q60.4-3.96 60.25-4.3 60.1-4.64 60-5.03L60-5.03Q59.96-5.27 59.96-5.44 59.96-5.62 59.91-5.81L59.91-5.81Q59.81-6.05 59.71-6.3 59.61-6.54 59.52-6.79L59.52-6.79Q59.13-7.86 58.93-8.98L58.93-8.98Q58.69-9.81 58.47-10.62 58.25-11.43 58.05-12.26L58.05-12.26Q57.91-12.94 57.71-13.7 57.51-14.45 57.22-15.04L57.22-15.04Q57.12-15.82 56.81-16.53 56.49-17.24 56.49-17.97L56.49-17.97Q56.25-18.75 56.07-19.53 55.9-20.31 55.66-21.09L55.66-21.09Q55.56-21.48 55.41-21.83 55.27-22.17 55.17-22.51L55.17-22.51Q55.02-22.95 54.93-23.44 54.83-23.93 54.73-24.41L54.73-24.41Q54.58-24.85 54.44-25.27 54.29-25.68 54.15-26.12L54.15-26.12Q53.9-26.95 53.68-27.76 53.46-28.56 53.22-29.39L53.22-29.39Q52.97-30.32 52.75-31.23 52.53-32.13 52-32.96L52-32.96Q51.85-33.2 51.78-33.52 51.7-33.84 51.56-34.13L51.56-34.13Q51.66-34.52 51.61-35.03 51.56-35.55 51.75-35.84L51.75-35.84Q52.24-35.84 52.92-35.86 53.61-35.89 53.95-35.79L53.95-35.79Q54.15-35.84 54.27-35.94 54.39-36.04 54.58-36.08L54.58-36.08Q54.88-35.94 55.17-35.94L55.17-35.94Q55.61-35.94 55.85-36.13L55.85-36.13Q56.39-35.89 56.44-36.04 56.49-36.18 56.68-36.18L56.68-36.18Q56.98-36.08 57.12-35.77 57.27-35.45 57.42-35.21L57.42-35.21Q57.95-34.23 58.22-33.28 58.49-32.32 58.78-31.25L58.78-31.25Q59.13-30.27 59.42-29.32 59.71-28.37 59.96-27.39L59.96-27.39Q60.1-26.9 60.2-26.42 60.3-25.93 60.4-25.44L60.4-25.44Q60.54-24.9 60.74-24.44 60.93-23.97 61.13-23.44L61.13-23.44Q61.23-22.9 61.32-22.39 61.42-21.88 61.57-21.34L61.57-21.34Q61.66-20.95 61.81-20.61 61.96-20.26 62.06-19.87L62.06-19.87Q62.15-19.48 62.25-19.07 62.35-18.65 62.45-18.26L62.45-18.26Q62.69-17.29 62.98-16.33 63.28-15.38 63.52-14.4L63.52-14.4Q63.76-14.55 63.81-14.94 63.86-15.33 64.01-15.58L64.01-15.58Q64.11-16.16 64.33-16.85 64.55-17.53 64.74-18.12L64.74-18.12Q64.79-18.36 64.86-18.55 64.94-18.75 65.03-18.99L65.03-18.99Q65.18-19.29 65.23-19.6 65.28-19.92 65.38-20.26L65.38-20.26Q65.57-20.95 65.79-21.63 66.01-22.31 66.21-23L66.21-23Q66.4-23.63 66.55-24.32 66.69-25 66.94-25.59L66.94-25.59Q67.18-26.12 67.35-26.61 67.52-27.1 67.67-27.64L67.67-27.64Q67.82-28.17 67.91-28.71 68.01-29.25 68.26-29.69L68.26-29.69Q68.35-29.93 68.48-30.25 68.6-30.57 68.7-30.86L68.7-30.86Q68.94-31.64 69.14-32.42 69.33-33.2 69.67-33.98L69.67-33.98Q69.92-34.67 70.26-35.3 70.6-35.94 70.84-36.62L70.84-36.62Q71.04-37.11 71.19-37.26 71.33-37.4 71.48-37.55ZM96.53-6.84L96.53-6.84Q96.92-6.2 97.11-5.62 97.31-5.03 97.31-4.79L97.31-4.79Q97.31-4.44 97.18-4.22 97.06-4 96.87-3.76L96.87-3.76Q94.91-2.93 92.99-2.22 91.06-1.51 89.06-0.83L89.06-0.83Q88.57-0.68 88.1-0.51 87.64-0.34 87.1-0.24L87.1-0.24Q87-0.15 86.76-0.05 86.52 0.05 86.2 0.15 85.88 0.24 85.59 0.32 85.3 0.39 85.2 0.39L85.2 0.39Q85.1 0.15 85 0.1 84.9 0.05 84.81 0L84.81 0Q84.56 0 84.49 0.17 84.42 0.34 84.17 0.44L84.17 0.44Q83.93 0.44 83.73 0.46 83.54 0.49 83.39 0.39L83.39 0.39Q83 0.49 82.68 0.73 82.37 0.98 81.97 1.07L81.97 1.07Q81.24 0.88 81.07 0.9 80.9 0.93 80.71 0.98L80.71 0.98Q80.36 0.68 80.39 0.15 80.41-0.39 80.12-0.73L80.12-0.73Q80.12-1.37 80.02-1.44 79.92-1.51 79.92-1.61L79.92-1.61Q79.92-1.95 79.97-2.25 80.02-2.54 79.92-2.88L79.92-2.88Q80.12-3.71 80.07-4.49 80.02-5.27 80.12-6.05L80.12-6.05Q80.12-6.3 80.14-6.52 80.17-6.74 80.17-6.98L80.17-6.98Q80.17-7.71 80.27-7.89 80.36-8.06 80.36-8.3L80.36-8.3Q80.36-8.64 80.34-8.96 80.31-9.28 80.31-9.67L80.31-9.67Q80.31-10.35 80.34-11.01 80.36-11.67 80.36-12.4L80.36-12.4Q80.36-14.26 80.12-16.11 79.88-17.97 79.88-19.82L79.88-19.82Q79.88-22.07 79.63-24.27 79.39-26.46 79.39-28.71L79.39-28.71Q79.39-29.1 79.39-29.81 79.39-30.52 79.39-31.27 79.39-32.03 79.41-32.71 79.44-33.4 79.48-33.69L79.48-33.69Q79.48-33.74 79.78-33.84 80.07-33.94 80.17-33.94L80.17-33.94Q80.41-33.94 80.56-33.81 80.71-33.69 80.9-33.59L80.9-33.59Q81.78-33.69 81.95-33.76 82.12-33.84 82.22-33.84L82.22-33.84Q82.51-33.84 82.68-33.69 82.85-33.54 82.95-33.54L82.95-33.54Q83.78-33.74 83.85-33.59 83.93-33.45 84.17-33.45L84.17-33.45Q84.81-33.64 84.95-33.59 85.1-33.54 85.25-33.54L85.25-33.54Q85.49-33.54 85.78-33.72 86.08-33.89 86.32-33.98L86.32-33.98Q87.15-34.23 87.69-34.47L87.69-34.47Q88.42-34.91 88.79-35.06 89.15-35.21 89.54-35.4L89.54-35.4Q90.37-35.74 91.13-36.11 91.89-36.47 92.72-36.87L92.72-36.87Q92.86-36.87 93.03-36.89 93.21-36.91 93.3-37.01L93.3-37.01Q93.45-36.96 93.62-36.96 93.79-36.96 93.94-36.96L93.94-36.96Q94.43-36.77 94.57-36.72L94.57-36.72Q94.77-36.43 94.94-36.16 95.11-35.89 95.35-35.64L95.35-35.64Q95.6-35.21 95.74-35.21L95.74-35.21Q95.74-35.06 95.6-34.89 95.45-34.72 95.45-34.57L95.45-34.57Q95.84-33.89 96.09-33.3 96.33-32.71 96.33-32.47L96.33-32.47Q96.33-32.13 96.23-31.91 96.14-31.69 95.99-31.45L95.99-31.45Q94.13-30.57 92.25-29.71 90.37-28.86 88.42-28.03L88.42-28.03Q87.93-27.83 87.49-27.61 87.05-27.39 86.52-27.29L86.52-27.29Q86.42-27.2 86.08-27.12 85.73-27.05 85.54-27.05L85.54-27.05Q85.64-26.22 85.66-25.42 85.69-24.61 85.73-23.78L85.73-23.78Q85.78-23.1 85.91-22.34 86.03-21.58 86.13-20.85L86.13-20.85Q87.74-21.53 89.32-22.22 90.91-22.9 92.52-23.58L92.52-23.58Q92.81-23.54 93.13-23.49 93.45-23.44 93.74-23.34L93.74-23.34Q93.84-23.24 93.94-23.1 94.04-22.95 94.18-22.85L94.18-22.85Q94.13-22.61 94.5-22.12 94.87-21.63 94.87-21.39L94.87-21.39Q94.87-21 94.96-20.92 95.06-20.85 95.16-20.51L95.16-20.51Q95.21-20.02 95.16-19.97L95.16-19.97Q95.4-19.73 95.55-19.48 95.7-19.24 95.7-18.9L95.7-18.9Q95.01-18.07 94.33-17.8 93.64-17.53 92.96-17.24L92.96-17.24Q92.72-17.14 92.45-16.97 92.18-16.8 91.94-16.7L91.94-16.7Q91.55-16.55 91.18-16.43 90.81-16.31 90.42-16.11L90.42-16.11Q89.79-15.77 89.13-15.36 88.47-14.94 87.79-14.79L87.79-14.79Q87.25-14.65 87.08-14.48 86.91-14.31 86.52-14.01L86.52-14.01 86.52-12.7 86.52-10.25Q86.52-9.77 86.52-9.25 86.52-8.74 86.47-8.2L86.47-8.2Q86.37-7.71 86.37-7.37L86.37-7.37 86.37-6.59Q86.61-6.69 86.86-6.76 87.1-6.84 87.35-6.93L87.35-6.93Q87.54-6.98 87.71-6.98 87.88-6.98 88.08-7.08L88.08-7.08Q88.32-7.13 88.47-7.18 88.62-7.23 88.81-7.32L88.81-7.32Q89.54-7.71 89.93-7.84 90.32-7.96 90.72-8.11L90.72-8.11Q91.55-8.4 92.33-8.72 93.11-9.03 93.89-9.33L93.89-9.33Q94.38-9.23 94.57-9.47L94.57-9.47Q94.82-9.42 94.99-9.38 95.16-9.33 95.4-9.33L95.4-9.33Q95.99-8.79 96.14-8.5 96.28-8.2 96.53-7.96L96.53-7.96Q96.77-7.52 96.87-7.52L96.87-7.52Q96.87-7.42 96.72-7.2 96.57-6.98 96.53-6.84Z" opacity="1" transform="matrix(1,0,0,1,0,0)" fill="#dedede" class="undefined-text-0" data-fill-palette-color="primary" id="text-0"></path></svg></g></svg></g></svg></g></svg></g><g transform="matrix(1,0,0,1,37.15199999999999,0)"><svg viewBox="0 0 118.656 78.16416704175795" height="78.16416704175795" width="118.656"><g><svg xmlns="http://www.w3.org/2000/svg" xmlns:xlink="http://www.w3.org/1999/xlink" version="1.1" x="8" y="0" viewBox="10.27626895904541 20.89055824279785 79.36368560791016 60.42897033691406" enable-background="new 0 0 100 100" xml:space="preserve" height="78.16416704175795" width="102.656" class="icon-icon-0" data-fill-palette-color="accent" id="icon-0"><path d="M16.964 29.894c-3.442 10.631-5.764 21.724-6.676 32.857-0.137 1.696 0.945 2.631 2.25 2.842 8.154 6.165 20.259 4.734 29.625 7.062 6.742 1.675 13.718 2.396 20.396 4.079 2.699 0.679 3.216 1.477 6.155 1.675 3.117 0.213 6.054 1.219 8.864 2.52 2.182 1.012 4.774 0.007 5.36-2.434 1.75-7.271 2.927-14.535 4.377-21.855 0.621-3.114 2.011-6.011 2.27-9.208 0.287-3.612-0.672-7.232-0.097-10.861 0.508-3.217-2.681-5.635-5.594-3.974-0.182 0.103-0.316 0.226-0.467 0.343-0.213-0.078-0.435-0.151-0.682-0.198-0.074-0.013-0.146-0.026-0.221-0.04-0.045-0.01-0.095-0.017-0.14-0.025C62.102 28.915 41.487 26.919 21.64 21.06c-4.476-1.324-6.119 5.496-1.987 7.103C18.594 27.984 17.418 28.492 16.964 29.894zM73.083 38.571c-2.78 2.083-5.536 4.192-8.144 6.503-3.303 2.924-12.374 13.116-16.39 7.302-3.356-4.861-8.132-9.033-12.319-13.164-2.468-2.432-5.131-4.642-7.558-7.117-0.471-0.621-0.964-1.222-1.451-1.833C42.305 34.036 57.749 36.004 73.083 38.571zM36.045 47.191c2.854 3.142 6.899 6.814 8.337 10.886 0.84 2.374 2.502 3.477 4.788 4.009 4.834 1.128 10.408-3.669 14.093-6.051 3.282-2.121 6.119-5.234 9.033-7.802 2.896-2.553 6.177-4.679 9.277-7.023-0.146 3.924-0.039 7.793-1.248 11.846-1.879 6.297-2.647 13.093-3.808 19.668-8.1-2.54-16.741-3.062-25.062-4.756-5.903-1.205-11.314-2.943-17.379-2.936-4.898 0.009-12.189-1.036-17.45-2.821 0.539-10.688 3.526-20.714 4.975-31.258 0.042-0.307 0.025-0.584-0.017-0.846C26.382 35.82 30.984 41.62 36.045 47.191z" fill="#dedede" data-fill-palette-color="accent"></path></svg></g></svg></g><g></g></svg></g></svg></g></svg></g></svg><rect width="320" height="360" fill="none" stroke="none" visibility="hidden"></rect></g></svg></g></svg>